<mxfile host="65bd71144e">
    <diagram id="qo2kMWw1S0tXvv6bRvVw" name="ERD">
        <mxGraphModel dx="1100" dy="812" grid="1" gridSize="10" guides="1" tooltips="1" connect="1" arrows="1" fold="1" page="1" pageScale="1" pageWidth="850" pageHeight="1100" math="0" shadow="0">
            <root>
                <mxCell id="0"/>
                <mxCell id="1" parent="0"/>
                <mxCell id="25" style="edgeStyle=none;html=1;entryX=0;entryY=0.5;entryDx=0;entryDy=0;startArrow=ERone;startFill=0;endArrow=ERmany;endFill=0;" parent="1" source="2" target="8" edge="1">
                    <mxGeometry relative="1" as="geometry"/>
                </mxCell>
                <mxCell id="2" value="Room" style="swimlane;fontStyle=0;childLayout=stackLayout;horizontal=1;startSize=30;horizontalStack=0;resizeParent=1;resizeParentMax=0;resizeLast=0;collapsible=1;marginBottom=0;whiteSpace=wrap;html=1;" parent="1" vertex="1">
                    <mxGeometry x="250" y="215" width="140" height="120" as="geometry"/>
                </mxCell>
                <mxCell id="4" value="id : number" style="text;strokeColor=none;fillColor=none;align=left;verticalAlign=middle;spacingLeft=4;spacingRight=4;overflow=hidden;points=[[0,0.5],[1,0.5]];portConstraint=eastwest;rotatable=0;whiteSpace=wrap;html=1;" parent="2" vertex="1">
                    <mxGeometry y="30" width="140" height="30" as="geometry"/>
                </mxCell>
                <mxCell id="5" value="name : string" style="text;strokeColor=none;fillColor=none;align=left;verticalAlign=middle;spacingLeft=4;spacingRight=4;overflow=hidden;points=[[0,0.5],[1,0.5]];portConstraint=eastwest;rotatable=0;whiteSpace=wrap;html=1;" parent="2" vertex="1">
                    <mxGeometry y="60" width="140" height="30" as="geometry"/>
                </mxCell>
                <mxCell id="33" value="teacherName : string" style="text;strokeColor=none;fillColor=none;align=left;verticalAlign=middle;spacingLeft=4;spacingRight=4;overflow=hidden;points=[[0,0.5],[1,0.5]];portConstraint=eastwest;rotatable=0;whiteSpace=wrap;html=1;" parent="2" vertex="1">
                    <mxGeometry y="90" width="140" height="30" as="geometry"/>
                </mxCell>
                <mxCell id="6" value="&lt;span style=&quot;text-align: left;&quot;&gt;Chat&lt;/span&gt;" style="swimlane;fontStyle=0;childLayout=stackLayout;horizontal=1;startSize=30;horizontalStack=0;resizeParent=1;resizeParentMax=0;resizeLast=0;collapsible=1;marginBottom=0;whiteSpace=wrap;html=1;" parent="1" vertex="1">
                    <mxGeometry x="550" y="230" width="140" height="150" as="geometry"/>
                </mxCell>
                <mxCell id="8" value="id : number" style="text;strokeColor=none;fillColor=none;align=left;verticalAlign=middle;spacingLeft=4;spacingRight=4;overflow=hidden;points=[[0,0.5],[1,0.5]];portConstraint=eastwest;rotatable=0;whiteSpace=wrap;html=1;" parent="6" vertex="1">
                    <mxGeometry y="30" width="140" height="30" as="geometry"/>
                </mxCell>
                <mxCell id="9" value="message : string" style="text;strokeColor=none;fillColor=none;align=left;verticalAlign=middle;spacingLeft=4;spacingRight=4;overflow=hidden;points=[[0,0.5],[1,0.5]];portConstraint=eastwest;rotatable=0;whiteSpace=wrap;html=1;" parent="6" vertex="1">
                    <mxGeometry y="60" width="140" height="30" as="geometry"/>
                </mxCell>
                <mxCell id="18" value="roleId : number" style="text;strokeColor=none;fillColor=none;align=left;verticalAlign=middle;spacingLeft=4;spacingRight=4;overflow=hidden;points=[[0,0.5],[1,0.5]];portConstraint=eastwest;rotatable=0;whiteSpace=wrap;html=1;" parent="6" vertex="1">
                    <mxGeometry y="90" width="140" height="30" as="geometry"/>
                </mxCell>
                <mxCell id="19" value="roomId : number" style="text;strokeColor=none;fillColor=none;align=left;verticalAlign=middle;spacingLeft=4;spacingRight=4;overflow=hidden;points=[[0,0.5],[1,0.5]];portConstraint=eastwest;rotatable=0;whiteSpace=wrap;html=1;" parent="6" vertex="1">
                    <mxGeometry y="120" width="140" height="30" as="geometry"/>
                </mxCell>
                <mxCell id="26" value="&lt;span style=&quot;text-align: left;&quot;&gt;Role&lt;/span&gt;" style="swimlane;fontStyle=0;childLayout=stackLayout;horizontal=1;startSize=30;horizontalStack=0;resizeParent=1;resizeParentMax=0;resizeLast=0;collapsible=1;marginBottom=0;whiteSpace=wrap;html=1;" parent="1" vertex="1">
                    <mxGeometry x="840" y="230" width="140" height="90" as="geometry"/>
                </mxCell>
                <mxCell id="27" value="id : number" style="text;strokeColor=none;fillColor=none;align=left;verticalAlign=middle;spacingLeft=4;spacingRight=4;overflow=hidden;points=[[0,0.5],[1,0.5]];portConstraint=eastwest;rotatable=0;whiteSpace=wrap;html=1;" parent="26" vertex="1">
                    <mxGeometry y="30" width="140" height="30" as="geometry"/>
                </mxCell>
                <mxCell id="28" value="name : string" style="text;strokeColor=none;fillColor=none;align=left;verticalAlign=middle;spacingLeft=4;spacingRight=4;overflow=hidden;points=[[0,0.5],[1,0.5]];portConstraint=eastwest;rotatable=0;whiteSpace=wrap;html=1;" parent="26" vertex="1">
                    <mxGeometry y="60" width="140" height="30" as="geometry"/>
                </mxCell>
                <mxCell id="31" style="edgeStyle=none;html=1;exitX=0;exitY=0.5;exitDx=0;exitDy=0;entryX=1;entryY=0.5;entryDx=0;entryDy=0;startArrow=ERmany;startFill=0;endArrow=ERmany;endFill=0;" parent="1" source="27" target="8" edge="1">
                    <mxGeometry relative="1" as="geometry"/>
                </mxCell>
            </root>
        </mxGraphModel>
    </diagram>
    <diagram id="9rT7qPmOeivZRWK8jsto" name="Workflow">
        <mxGraphModel dx="1294" dy="955" grid="1" gridSize="10" guides="1" tooltips="1" connect="1" arrows="1" fold="1" page="1" pageScale="1" pageWidth="1920" pageHeight="1200" math="0" shadow="0">
            <root>
                <mxCell id="0"/>
                <mxCell id="1" parent="0"/>
                <mxCell id="VLDfOiWNWQy9RsH8pDW6-12" style="edgeStyle=none;html=1;" parent="1" source="VLDfOiWNWQy9RsH8pDW6-1" target="VLDfOiWNWQy9RsH8pDW6-11" edge="1">
                    <mxGeometry relative="1" as="geometry"/>
                </mxCell>
                <mxCell id="VLDfOiWNWQy9RsH8pDW6-14" style="edgeStyle=none;html=1;entryX=0;entryY=0.5;entryDx=0;entryDy=0;" parent="1" source="VLDfOiWNWQy9RsH8pDW6-1" target="VLDfOiWNWQy9RsH8pDW6-13" edge="1">
                    <mxGeometry relative="1" as="geometry">
                        <mxPoint x="620" y="710" as="targetPoint"/>
                    </mxGeometry>
                </mxCell>
                <mxCell id="VLDfOiWNWQy9RsH8pDW6-80" style="edgeStyle=none;html=1;endArrow=classic;endFill=1;entryX=0;entryY=0.5;entryDx=0;entryDy=0;" parent="1" source="VLDfOiWNWQy9RsH8pDW6-1" target="VLDfOiWNWQy9RsH8pDW6-83" edge="1">
                    <mxGeometry relative="1" as="geometry">
                        <mxPoint x="760" y="1010" as="targetPoint"/>
                        <Array as="points">
                            <mxPoint x="580" y="990"/>
                        </Array>
                    </mxGeometry>
                </mxCell>
                <mxCell id="VLDfOiWNWQy9RsH8pDW6-90" value="Request" style="edgeLabel;html=1;align=center;verticalAlign=middle;resizable=0;points=[];" parent="VLDfOiWNWQy9RsH8pDW6-80" vertex="1" connectable="0">
                    <mxGeometry x="-0.3452" y="3" relative="1" as="geometry">
                        <mxPoint x="1" as="offset"/>
                    </mxGeometry>
                </mxCell>
                <mxCell id="VLDfOiWNWQy9RsH8pDW6-1" value="Anoymous User" style="rounded=1;whiteSpace=wrap;html=1;" parent="1" vertex="1">
                    <mxGeometry x="510" y="570" width="100" height="100" as="geometry"/>
                </mxCell>
                <mxCell id="VLDfOiWNWQy9RsH8pDW6-27" style="edgeStyle=none;html=1;" parent="1" source="VLDfOiWNWQy9RsH8pDW6-3" target="VLDfOiWNWQy9RsH8pDW6-15" edge="1">
                    <mxGeometry relative="1" as="geometry"/>
                </mxCell>
                <mxCell id="VLDfOiWNWQy9RsH8pDW6-28" value="Response" style="edgeLabel;html=1;align=center;verticalAlign=middle;resizable=0;points=[];" parent="VLDfOiWNWQy9RsH8pDW6-27" vertex="1" connectable="0">
                    <mxGeometry x="0.2647" y="2" relative="1" as="geometry">
                        <mxPoint as="offset"/>
                    </mxGeometry>
                </mxCell>
                <mxCell id="VLDfOiWNWQy9RsH8pDW6-43" style="edgeStyle=none;html=1;entryX=0;entryY=0.5;entryDx=0;entryDy=0;" parent="1" source="VLDfOiWNWQy9RsH8pDW6-3" target="VLDfOiWNWQy9RsH8pDW6-29" edge="1">
                    <mxGeometry relative="1" as="geometry"/>
                </mxCell>
                <mxCell id="VLDfOiWNWQy9RsH8pDW6-87" style="edgeStyle=none;html=1;endArrow=classic;endFill=1;entryX=1;entryY=0.5;entryDx=0;entryDy=0;exitX=0.5;exitY=0;exitDx=0;exitDy=0;" parent="1" source="VLDfOiWNWQy9RsH8pDW6-62" target="VLDfOiWNWQy9RsH8pDW6-85" edge="1">
                    <mxGeometry relative="1" as="geometry">
                        <mxPoint x="1200" y="280" as="targetPoint"/>
                        <Array as="points">
                            <mxPoint x="1470" y="320"/>
                            <mxPoint x="1210" y="270"/>
                        </Array>
                    </mxGeometry>
                </mxCell>
                <mxCell id="VLDfOiWNWQy9RsH8pDW6-88" value="Response" style="edgeLabel;html=1;align=center;verticalAlign=middle;resizable=0;points=[];" parent="VLDfOiWNWQy9RsH8pDW6-87" vertex="1" connectable="0">
                    <mxGeometry x="-0.3685" y="-1" relative="1" as="geometry">
                        <mxPoint x="-167" y="-45" as="offset"/>
                    </mxGeometry>
                </mxCell>
                <mxCell id="VLDfOiWNWQy9RsH8pDW6-91" style="edgeStyle=none;html=1;endArrow=classic;endFill=1;entryX=0;entryY=0.5;entryDx=0;entryDy=0;" parent="1" source="VLDfOiWNWQy9RsH8pDW6-3" target="VLDfOiWNWQy9RsH8pDW6-92" edge="1">
                    <mxGeometry relative="1" as="geometry">
                        <mxPoint x="1500" y="630" as="targetPoint"/>
                    </mxGeometry>
                </mxCell>
                <mxCell id="VLDfOiWNWQy9RsH8pDW6-3" value="Backend" style="rounded=1;whiteSpace=wrap;html=1;" parent="1" vertex="1">
                    <mxGeometry x="1290" y="570" width="100" height="100" as="geometry"/>
                </mxCell>
                <mxCell id="VLDfOiWNWQy9RsH8pDW6-31" style="edgeStyle=none;html=1;entryX=0;entryY=0.25;entryDx=0;entryDy=0;" parent="1" source="VLDfOiWNWQy9RsH8pDW6-11" target="VLDfOiWNWQy9RsH8pDW6-3" edge="1">
                    <mxGeometry relative="1" as="geometry">
                        <mxPoint x="1460" y="550" as="targetPoint"/>
                        <Array as="points">
                            <mxPoint x="1150" y="530"/>
                        </Array>
                    </mxGeometry>
                </mxCell>
                <mxCell id="VLDfOiWNWQy9RsH8pDW6-32" value="Request" style="edgeLabel;html=1;align=center;verticalAlign=middle;resizable=0;points=[];" parent="VLDfOiWNWQy9RsH8pDW6-31" vertex="1" connectable="0">
                    <mxGeometry x="-0.4075" y="1" relative="1" as="geometry">
                        <mxPoint x="47" y="7" as="offset"/>
                    </mxGeometry>
                </mxCell>
                <mxCell id="VLDfOiWNWQy9RsH8pDW6-52" style="edgeStyle=none;html=1;dashed=1;" parent="1" source="VLDfOiWNWQy9RsH8pDW6-11" target="VLDfOiWNWQy9RsH8pDW6-38" edge="1">
                    <mxGeometry relative="1" as="geometry"/>
                </mxCell>
                <mxCell id="VLDfOiWNWQy9RsH8pDW6-53" value="After get Response" style="edgeLabel;html=1;align=center;verticalAlign=middle;resizable=0;points=[];" parent="VLDfOiWNWQy9RsH8pDW6-52" vertex="1" connectable="0">
                    <mxGeometry x="-0.02" y="3" relative="1" as="geometry">
                        <mxPoint as="offset"/>
                    </mxGeometry>
                </mxCell>
                <mxCell id="VLDfOiWNWQy9RsH8pDW6-11" value="Create Room" style="rounded=1;whiteSpace=wrap;html=1;" parent="1" vertex="1">
                    <mxGeometry x="700" y="370" width="100" height="100" as="geometry"/>
                </mxCell>
                <mxCell id="VLDfOiWNWQy9RsH8pDW6-23" style="edgeStyle=none;html=1;" parent="1" source="VLDfOiWNWQy9RsH8pDW6-13" target="VLDfOiWNWQy9RsH8pDW6-3" edge="1">
                    <mxGeometry relative="1" as="geometry">
                        <Array as="points">
                            <mxPoint x="1070" y="770"/>
                        </Array>
                    </mxGeometry>
                </mxCell>
                <mxCell id="VLDfOiWNWQy9RsH8pDW6-24" value="Request" style="edgeLabel;html=1;align=center;verticalAlign=middle;resizable=0;points=[];" parent="VLDfOiWNWQy9RsH8pDW6-23" vertex="1" connectable="0">
                    <mxGeometry x="-0.2668" y="1" relative="1" as="geometry">
                        <mxPoint as="offset"/>
                    </mxGeometry>
                </mxCell>
                <mxCell id="VLDfOiWNWQy9RsH8pDW6-25" value="Get" style="edgeLabel;html=1;align=center;verticalAlign=middle;resizable=0;points=[];" parent="VLDfOiWNWQy9RsH8pDW6-23" vertex="1" connectable="0">
                    <mxGeometry x="-0.2668" y="1" relative="1" as="geometry">
                        <mxPoint x="-3" y="18" as="offset"/>
                    </mxGeometry>
                </mxCell>
                <mxCell id="VLDfOiWNWQy9RsH8pDW6-47" value="After get Response" style="edgeStyle=none;html=1;dashed=1;" parent="1" source="VLDfOiWNWQy9RsH8pDW6-13" target="VLDfOiWNWQy9RsH8pDW6-38" edge="1">
                    <mxGeometry relative="1" as="geometry">
                        <Array as="points"/>
                    </mxGeometry>
                </mxCell>
                <mxCell id="VLDfOiWNWQy9RsH8pDW6-13" value="Join Room" style="rounded=1;whiteSpace=wrap;html=1;" parent="1" vertex="1">
                    <mxGeometry x="700" y="790" width="100" height="100" as="geometry"/>
                </mxCell>
                <mxCell id="VLDfOiWNWQy9RsH8pDW6-39" style="edgeStyle=none;html=1;" parent="1" source="VLDfOiWNWQy9RsH8pDW6-15" target="VLDfOiWNWQy9RsH8pDW6-38" edge="1">
                    <mxGeometry relative="1" as="geometry"/>
                </mxCell>
                <mxCell id="VLDfOiWNWQy9RsH8pDW6-15" value="Room ID" style="rounded=1;whiteSpace=wrap;html=1;fillColor=#6a00ff;fontColor=#ffffff;strokeColor=#3700CC;" parent="1" vertex="1">
                    <mxGeometry x="940" y="600" width="110" height="60" as="geometry"/>
                </mxCell>
                <mxCell id="VLDfOiWNWQy9RsH8pDW6-29" value="GenKey ID Room" style="rounded=1;whiteSpace=wrap;html=1;fillColor=#6a00ff;fontColor=#ffffff;strokeColor=#3700CC;" parent="1" vertex="1">
                    <mxGeometry x="1430" y="760" width="100" height="100" as="geometry"/>
                </mxCell>
                <mxCell id="VLDfOiWNWQy9RsH8pDW6-38" value="Live Room" style="rounded=1;whiteSpace=wrap;html=1;" parent="1" vertex="1">
                    <mxGeometry x="700" y="570" width="100" height="100" as="geometry"/>
                </mxCell>
                <mxCell id="VLDfOiWNWQy9RsH8pDW6-60" value="Answer" style="rounded=1;whiteSpace=wrap;html=1;" parent="1" vertex="1">
                    <mxGeometry x="800" y="950" width="100" height="40" as="geometry"/>
                </mxCell>
                <mxCell id="VLDfOiWNWQy9RsH8pDW6-97" style="edgeStyle=none;html=1;endArrow=none;endFill=0;" parent="1" source="VLDfOiWNWQy9RsH8pDW6-62" target="VLDfOiWNWQy9RsH8pDW6-96" edge="1">
                    <mxGeometry relative="1" as="geometry"/>
                </mxCell>
                <mxCell id="VLDfOiWNWQy9RsH8pDW6-62" value="Gen Random Name" style="rounded=1;whiteSpace=wrap;html=1;" parent="1" vertex="1">
                    <mxGeometry x="1630" y="520" width="100" height="100" as="geometry"/>
                </mxCell>
                <mxCell id="VLDfOiWNWQy9RsH8pDW6-75" value="Room ID" style="rounded=1;whiteSpace=wrap;html=1;" parent="1" vertex="1">
                    <mxGeometry x="800" y="180" width="100" height="40" as="geometry"/>
                </mxCell>
                <mxCell id="VLDfOiWNWQy9RsH8pDW6-76" value="Name" style="rounded=1;whiteSpace=wrap;html=1;" parent="1" vertex="1">
                    <mxGeometry x="800" y="250" width="100" height="40" as="geometry"/>
                </mxCell>
                <mxCell id="VLDfOiWNWQy9RsH8pDW6-79" value="Ask" style="rounded=1;whiteSpace=wrap;html=1;" parent="1" vertex="1">
                    <mxGeometry x="800" y="1020" width="100" height="40" as="geometry"/>
                </mxCell>
                <mxCell id="VLDfOiWNWQy9RsH8pDW6-84" style="edgeStyle=none;html=1;endArrow=classic;endFill=1;" parent="1" source="VLDfOiWNWQy9RsH8pDW6-83" target="VLDfOiWNWQy9RsH8pDW6-3" edge="1">
                    <mxGeometry relative="1" as="geometry">
                        <Array as="points">
                            <mxPoint x="1200" y="1000"/>
                        </Array>
                    </mxGeometry>
                </mxCell>
                <mxCell id="VLDfOiWNWQy9RsH8pDW6-83" value="" style="rounded=0;whiteSpace=wrap;html=1;fillColor=none;strokeColor=#0080F0;" parent="1" vertex="1">
                    <mxGeometry x="780" y="930" width="140" height="160" as="geometry"/>
                </mxCell>
                <mxCell id="VLDfOiWNWQy9RsH8pDW6-86" style="edgeStyle=none;html=1;entryX=0.5;entryY=0;entryDx=0;entryDy=0;endArrow=classic;endFill=1;" parent="1" source="VLDfOiWNWQy9RsH8pDW6-85" target="VLDfOiWNWQy9RsH8pDW6-1" edge="1">
                    <mxGeometry relative="1" as="geometry">
                        <Array as="points">
                            <mxPoint x="580" y="280"/>
                        </Array>
                    </mxGeometry>
                </mxCell>
                <mxCell id="VLDfOiWNWQy9RsH8pDW6-85" value="" style="rounded=0;whiteSpace=wrap;html=1;fillColor=none;strokeColor=#00F0C0;" parent="1" vertex="1">
                    <mxGeometry x="780" y="160" width="140" height="160" as="geometry"/>
                </mxCell>
                <mxCell id="VLDfOiWNWQy9RsH8pDW6-94" style="edgeStyle=none;html=1;entryX=0;entryY=0.5;entryDx=0;entryDy=0;endArrow=classic;endFill=1;" parent="1" source="VLDfOiWNWQy9RsH8pDW6-92" target="VLDfOiWNWQy9RsH8pDW6-62" edge="1">
                    <mxGeometry relative="1" as="geometry"/>
                </mxCell>
                <mxCell id="VLDfOiWNWQy9RsH8pDW6-92" value="If Join Room&lt;br&gt;Success" style="rounded=1;whiteSpace=wrap;html=1;" parent="1" vertex="1">
                    <mxGeometry x="1460" y="520" width="100" height="100" as="geometry"/>
                </mxCell>
                <mxCell id="VLDfOiWNWQy9RsH8pDW6-96" value="Create Instance User" style="rounded=1;whiteSpace=wrap;html=1;" parent="1" vertex="1">
                    <mxGeometry x="1630" y="660" width="100" height="60" as="geometry"/>
                </mxCell>
            </root>
        </mxGraphModel>
    </diagram>
    <diagram id="fU1YFVc4dqAYhQakVX-V" name="Host Screen">
        <mxGraphModel dx="1100" dy="812" grid="1" gridSize="10" guides="1" tooltips="1" connect="1" arrows="1" fold="1" page="1" pageScale="1" pageWidth="1920" pageHeight="1200" math="0" shadow="0">
            <root>
                <mxCell id="0"/>
                <mxCell id="1" parent="0"/>
                <mxCell id="s-NHIUzT8mjsKX0eW3wo-3" value="&lt;span style=&quot;color: rgb(240, 240, 240); font-family: Helvetica; font-size: 70px; font-style: normal; font-variant-ligatures: normal; font-variant-caps: normal; font-weight: 400; letter-spacing: normal; orphans: 2; text-align: center; text-indent: 0px; text-transform: none; widows: 2; word-spacing: 0px; -webkit-text-stroke-width: 0px; background-color: rgb(42, 37, 47); text-decoration-thickness: initial; text-decoration-style: initial; text-decoration-color: initial; float: none; display: inline !important;&quot;&gt;Room ID&lt;/span&gt;" style="text;whiteSpace=wrap;html=1;fontSize=70;" parent="1" vertex="1">
                    <mxGeometry x="730" y="80" width="360" height="130" as="geometry"/>
                </mxCell>
                <mxCell id="s-NHIUzT8mjsKX0eW3wo-4" value="&lt;span style=&quot;color: rgb(240, 240, 240); font-family: Helvetica; font-style: normal; font-variant-ligatures: normal; font-variant-caps: normal; font-weight: 400; letter-spacing: normal; orphans: 2; text-indent: 0px; text-transform: none; widows: 2; word-spacing: 0px; -webkit-text-stroke-width: 0px; background-color: rgb(42, 37, 47); text-decoration-thickness: initial; text-decoration-style: initial; text-decoration-color: initial; float: none; display: inline !important;&quot;&gt;&lt;font style=&quot;font-size: 60px;&quot;&gt;Host name&lt;/font&gt;&lt;/span&gt;" style="text;whiteSpace=wrap;html=1;fontSize=70;align=center;" parent="1" vertex="1">
                    <mxGeometry x="700" y="200" width="360" height="130" as="geometry"/>
                </mxCell>
                <mxCell id="s-NHIUzT8mjsKX0eW3wo-5" value="&lt;span style=&quot;color: rgb(240, 240, 240); font-family: Helvetica; font-style: normal; font-variant-ligatures: normal; font-variant-caps: normal; font-weight: 400; letter-spacing: normal; orphans: 2; text-indent: 0px; text-transform: none; widows: 2; word-spacing: 0px; -webkit-text-stroke-width: 0px; background-color: rgb(42, 37, 47); text-decoration-thickness: initial; text-decoration-style: initial; text-decoration-color: initial; float: none; display: inline !important;&quot;&gt;&lt;font style=&quot;font-size: 60px;&quot;&gt;Audience Count: 100&lt;/font&gt;&lt;/span&gt;" style="text;whiteSpace=wrap;html=1;fontSize=70;align=center;" parent="1" vertex="1">
                    <mxGeometry x="530" y="1010" width="700" height="130" as="geometry"/>
                </mxCell>
                <mxCell id="s-NHIUzT8mjsKX0eW3wo-6" value="&lt;span style=&quot;color: rgb(240, 240, 240); font-family: Helvetica; font-style: normal; font-variant-ligatures: normal; font-variant-caps: normal; font-weight: 400; letter-spacing: normal; orphans: 2; text-indent: 0px; text-transform: none; widows: 2; word-spacing: 0px; -webkit-text-stroke-width: 0px; background-color: rgb(42, 37, 47); text-decoration-thickness: initial; text-decoration-style: initial; text-decoration-color: initial; float: none; display: inline !important;&quot;&gt;&lt;font style=&quot;font-size: 100px;&quot;&gt;Question&lt;/font&gt;&lt;/span&gt;" style="text;whiteSpace=wrap;html=1;fontSize=70;align=center;" parent="1" vertex="1">
                    <mxGeometry x="510" y="410" width="700" height="130" as="geometry"/>
                </mxCell>
                <mxCell id="o-TXqCFEXiUHsHZF4Yop-1" value="&lt;font style=&quot;font-size: 50px;&quot;&gt;&lt;i&gt;Already Answer&lt;/i&gt;&lt;/font&gt;" style="text;whiteSpace=wrap;html=1;fontSize=70;align=center;" parent="1" vertex="1">
                    <mxGeometry x="1300" y="450" width="480" height="160" as="geometry"/>
                </mxCell>
                <mxCell id="o-TXqCFEXiUHsHZF4Yop-2" value="&lt;span style=&quot;font-family: Helvetica; font-style: normal; font-variant-ligatures: normal; font-variant-caps: normal; font-weight: 400; letter-spacing: normal; orphans: 2; text-indent: 0px; text-transform: none; widows: 2; word-spacing: 0px; -webkit-text-stroke-width: 0px; background-color: rgb(42, 37, 47); text-decoration-thickness: initial; text-decoration-style: initial; text-decoration-color: initial; float: none; display: inline !important;&quot;&gt;&lt;font style=&quot;font-size: 30px;&quot;&gt;1. ลุงตู่จะเป็นนายกต่อไหม 21:00&lt;br&gt;&lt;font color=&quot;#00f078&quot;&gt;&lt;strike&gt;2. เงินจิดิตอลโดนบิดไหม 21:20&lt;/strike&gt;&lt;/font&gt;&lt;br&gt;&lt;/font&gt;&lt;/span&gt;" style="text;whiteSpace=wrap;html=1;fontSize=70;align=center;" parent="1" vertex="1">
                    <mxGeometry x="500" y="580" width="560" height="290" as="geometry"/>
                </mxCell>
                <mxCell id="o-TXqCFEXiUHsHZF4Yop-5" value="&lt;div style=&quot;text-align: left;&quot;&gt;&lt;span style=&quot;font-size: 30px;&quot;&gt;-&lt;/span&gt;&lt;/div&gt;&lt;span style=&quot;color: rgb(240, 240, 240); font-family: Helvetica; font-style: normal; font-variant-ligatures: normal; font-variant-caps: normal; font-weight: 400; letter-spacing: normal; orphans: 2; text-indent: 0px; text-transform: none; widows: 2; word-spacing: 0px; -webkit-text-stroke-width: 0px; background-color: rgb(42, 37, 47); text-decoration-thickness: initial; text-decoration-style: initial; text-decoration-color: initial; float: none; display: inline !important;&quot;&gt;&lt;div style=&quot;text-align: left;&quot;&gt;&lt;span style=&quot;font-size: 30px;&quot;&gt;2. แน่นอนคับ 21:21&lt;/span&gt;&lt;/div&gt;&lt;/span&gt;" style="text;whiteSpace=wrap;html=1;fontSize=70;align=center;" parent="1" vertex="1">
                    <mxGeometry x="1290" y="570" width="440" height="290" as="geometry"/>
                </mxCell>
            </root>
        </mxGraphModel>
    </diagram>
    <diagram id="9JCJNSiyZUDOMBvEhPqs" name="Anonymous User">
        <mxGraphModel dx="1100" dy="812" grid="1" gridSize="10" guides="1" tooltips="1" connect="1" arrows="1" fold="1" page="1" pageScale="1" pageWidth="1920" pageHeight="1200" math="0" shadow="0">
            <root>
                <mxCell id="0"/>
                <mxCell id="1" parent="0"/>
                <mxCell id="HprAMixxBDSzLhLsrvy8-1" value="&lt;span style=&quot;color: rgb(240, 240, 240); font-family: Helvetica; font-size: 70px; font-style: normal; font-variant-ligatures: normal; font-variant-caps: normal; font-weight: 400; letter-spacing: normal; orphans: 2; text-align: center; text-indent: 0px; text-transform: none; widows: 2; word-spacing: 0px; -webkit-text-stroke-width: 0px; background-color: rgb(42, 37, 47); text-decoration-thickness: initial; text-decoration-style: initial; text-decoration-color: initial; float: none; display: inline !important;&quot;&gt;Room ID&lt;/span&gt;" style="text;whiteSpace=wrap;html=1;fontSize=70;" parent="1" vertex="1">
                    <mxGeometry x="720" y="40" width="360" height="130" as="geometry"/>
                </mxCell>
                <mxCell id="HprAMixxBDSzLhLsrvy8-2" value="&lt;span style=&quot;color: rgb(240, 240, 240); font-family: Helvetica; font-style: normal; font-variant-ligatures: normal; font-variant-caps: normal; font-weight: 400; letter-spacing: normal; orphans: 2; text-indent: 0px; text-transform: none; widows: 2; word-spacing: 0px; -webkit-text-stroke-width: 0px; background-color: rgb(42, 37, 47); text-decoration-thickness: initial; text-decoration-style: initial; text-decoration-color: initial; float: none; display: inline !important;&quot;&gt;&lt;font style=&quot;font-size: 60px;&quot;&gt;Host name&lt;/font&gt;&lt;/span&gt;" style="text;whiteSpace=wrap;html=1;fontSize=70;align=center;" parent="1" vertex="1">
                    <mxGeometry x="690" y="180" width="360" height="130" as="geometry"/>
                </mxCell>
                <mxCell id="HprAMixxBDSzLhLsrvy8-3" value="&lt;span style=&quot;color: rgb(240, 240, 240); font-family: Helvetica; font-style: normal; font-variant-ligatures: normal; font-variant-caps: normal; font-weight: 400; letter-spacing: normal; orphans: 2; text-indent: 0px; text-transform: none; widows: 2; word-spacing: 0px; -webkit-text-stroke-width: 0px; background-color: rgb(42, 37, 47); text-decoration-thickness: initial; text-decoration-style: initial; text-decoration-color: initial; float: none; display: inline !important;&quot;&gt;&lt;font style=&quot;font-size: 60px;&quot;&gt;Audience Count: 100&lt;/font&gt;&lt;/span&gt;" style="text;whiteSpace=wrap;html=1;fontSize=70;align=center;" parent="1" vertex="1">
                    <mxGeometry x="1200" y="110" width="700" height="130" as="geometry"/>
                </mxCell>
                <mxCell id="HprAMixxBDSzLhLsrvy8-4" value="&lt;span style=&quot;color: rgb(240, 240, 240); font-family: Helvetica; font-style: normal; font-variant-ligatures: normal; font-variant-caps: normal; font-weight: 400; letter-spacing: normal; orphans: 2; text-indent: 0px; text-transform: none; widows: 2; word-spacing: 0px; -webkit-text-stroke-width: 0px; background-color: rgb(42, 37, 47); text-decoration-thickness: initial; text-decoration-style: initial; text-decoration-color: initial; float: none; display: inline !important;&quot;&gt;&lt;font style=&quot;font-size: 100px;&quot;&gt;Question&lt;/font&gt;&lt;/span&gt;" style="text;whiteSpace=wrap;html=1;fontSize=70;align=center;" parent="1" vertex="1">
                    <mxGeometry x="530" y="535" width="700" height="130" as="geometry"/>
                </mxCell>
                <mxCell id="HprAMixxBDSzLhLsrvy8-5" value="&lt;span style=&quot;color: rgb(240, 240, 240); font-family: Helvetica; font-style: normal; font-variant-ligatures: normal; font-variant-caps: normal; font-weight: 400; letter-spacing: normal; orphans: 2; text-indent: 0px; text-transform: none; widows: 2; word-spacing: 0px; -webkit-text-stroke-width: 0px; background-color: rgb(42, 37, 47); text-decoration-thickness: initial; text-decoration-style: initial; text-decoration-color: initial; float: none; display: inline !important;&quot;&gt;&lt;font style=&quot;font-size: 100px;&quot;&gt;Ask&lt;/font&gt;&lt;/span&gt;" style="text;whiteSpace=wrap;html=1;fontSize=70;align=center;" parent="1" vertex="1">
                    <mxGeometry x="305" y="990" width="1150" height="130" as="geometry"/>
                </mxCell>
            </root>
        </mxGraphModel>
    </diagram>
</mxfile>